#!OML:ASF F:\VICON\USERDATA\INSTALL\Justin_Nancy\Justin_Nancy.ASF
:FULLY-SPECIFIED
:DEGREES
64
root 0.906249 16.2076 -1.43696 -10.7182 -2.14987 1.42891
lowerback 13.5723 0.610534 1.36914
upperback 1.9475 1.16241 2.53844
thorax -5.58274 0.565774 1.68856
lowerneck -20.2039 -4.46588 -9.09134
upperneck 18.8743 -4.21481 3.58381
head 9.5843 -2.21752 2.13856
rclavicle 1.73564e-014 2.46493e-014
rhumerus -37.4186 12.9218 -88.6678
rradius 110.587
rwrist -11.5819
rhand -13.5652 20.2226
rfingers 7.12502
rthumb 12.5483 -9.38059
lclavicle 1.73564e-014 2.46493e-014
lhumerus -45.2017 -5.22194 95.3053
lradius 82.7541
lwrist 22.9066
lhand -17.5474 7.14575
lfingers 7.12502
lthumb 8.70716 36.9462
rfemur -16.7856 6.76998 22.9941
rtibia 57.375
rfoot -20.7299 -11.421
rtoes -9.09843
lfemur -30.8723 3.2661 -19.2467
ltibia 67.3455
lfoot -14.4846 6.10623
ltoes -8.83897
65
root 0.939576 16.2366 -1.11346 -10.2654 -2.11409 1.34872
lowerback 13.4295 0.841867 1.86668
upperback 1.73717 1.53939 2.4608
thorax -5.71876 0.739138 1.25807
lowerneck -20.0444 -4.64771 -9.24451
upperneck 18.5823 -4.51661 3.95455
head 9.48622 -2.32386 2.25017
rclavicle -1.44864e-014 9.54166e-015
rhumerus -37.366 12.6718 -88.8344
rradius 111.956
rwrist -12.2467
rhand -13.0874 19.6655
rfingers 7.12502
rthumb 13.0089 -9.90886
lclavicle -1.44864e-014 9.54166e-015
lhumerus -46.4623 -5.68691 95.4253
lradius 83.0734
lwrist 22.88
lhand -17.577 7.13753
lfingers 7.12502
lthumb 8.67851 36.9391
rfemur -15.5915 6.64301 23.0495
rtibia 56.8304
rfoot -21.7133 -11.7801
rtoes -8.83133
lfemur -31.8923 2.86209 -19.5371
ltibia 63.852
lfoot -13.6231 6.63343
ltoes -6.98697
66
root 0.975375 16.2904 -0.764504 -9.79019 -2.47908 1.30195
lowerback 12.9532 1.15642 2.33506
upperback 1.59018 2.00677 2.39612
thorax -5.59637 0.95848 0.849444
lowerneck -19.9999 -4.75301 -9.3413
upperneck 18.3455 -4.70831 4.28581
head 9.41936 -2.37968 2.3536
rclavicle 1.35422e-014 -9.54166e-015
rhumerus -37.2361 12.6773 -88.9962
rradius 113.086
rwrist -12.9339
rhand -12.859 19.1325
rfingers 7.12502
rthumb 13.2291 -10.4277
lclavicle 1.35422e-014 -9.54166e-015
lhumerus -47.6954 -5.93957 95.4614
lradius 83.4803
lwrist 23.0556
lhand -17.5731 6.7795
lfingers 7.12502
lthumb 8.68232 36.5809
rfemur -14.2565 6.94075 23.1672
rtibia 56.1756
rfoot -22.4302 -12.3888
rtoes -10.3718
lfemur -32.4604 2.72278 -19.7238
ltibia 59.9913
lfoot -12.6684 7.24929
ltoes -3.43848
67
root 1.00434 16.3455 -0.411855 -9.37344 -2.80152 1.37498
lowerback 12.5165 1.47353 2.49572
upperback 1.33399 2.43826 2.34052
thorax -5.61532 1.16549 0.633746
lowerneck -19.7428 -4.84666 -9.49658
upperneck 18.3831 -4.8904 4.59512
head 9.41246 -2.44446 2.4641
rclavicle 2.3879e-014 2.8625e-014
rhumerus -37.3063 12.801 -89.1422
rradius 114.092
rwrist -13.3307
rhand -12.78 19.0442
rfingers 7.12502
rthumb 13.3053 -10.5111
lclavicle 2.3879e-014 2.8625e-014
lhumerus -49.2616 -6.01519 95.475
lradius 83.9096
lwrist 23.1371
lhand -17.316 6.07716
lfingers 7.12502
lthumb 8.93042 35.8682
rfemur -12.8944 7.37691 23.2172
rtibia 55.5102
rfoot -22.0988 -13.2147
rtoes -8.40881
lfemur -32.7067 2.61056 -19.9327
ltibia 55.7671
lfoot -13.1701 7.29102
ltoes -7.36579
68
root 1.0239 16.3828 -0.083317 -8.9629 -2.68561 1.15776
lowerback 12.4863 1.58669 2.75637
upperback 0.898087 2.64322 2.38171
thorax -6.04932 1.25316 0.490862
lowerneck -19.3587 -4.96445 -9.53976
upperneck 18.5161 -5.10065 4.66008
head 9.40961 -2.54506 2.46894
rclavicle -1.60519e-014 -2.38542e-015
rhumerus -37.1709 13.0599 -89.2298
rradius 114.922
rwrist -13.343
rhand -12.5808 18.9868
rfingers 7.12502
rthumb 13.4973 -10.5559
lclavicle -1.60519e-014 -2.38542e-015
lhumerus -51.1187 -5.83869 95.4155
lradius 84.5965
lwrist 23.2519
lhand -17.4157 5.86268
lfingers 7.12502
lthumb 8.83416 35.6578
rfemur -11.6748 7.52583 23.5645
rtibia 54.8656
rfoot -22.2098 -13.9136
rtoes -7.86531
lfemur -32.949 2.23953 -19.8418
ltibia 51.3107
lfoot -12.4011 6.50249
ltoes -8.84179
69
root 1.04172 16.4203 0.244849 -8.90101 -2.75592 0.984233
lowerback 12.7147 1.71555 2.90906
upperback 0.689544 2.85894 2.441
thorax -6.3926 1.34945 0.419993
lowerneck -19.0721 -5.06025 -9.30946
upperneck 18.2543 -5.26722 4.41207
head 9.26585 -2.63506 2.324
rclavicle -5.86415e-015 9.54166e-015
rhumerus -36.6742 13.4343 -89.2215
rradius 115.56
rwrist -13.0103
rhand -12.5285 19.2655
rfingers 7.12502
rthumb 13.5476 -10.2738
lclavicle -5.86415e-015 9.54166e-015
lhumerus -52.8043 -5.37039 95.2013
lradius 85.4061
lwrist 23.3827
lhand -17.7139 5.95075
lfingers 7.12502
lthumb 8.54645 35.7578
rfemur -10.0433 7.85644 23.9647
rtibia 54.23
rfoot -22.5233 -14.4767
rtoes -8.33639
lfemur -32.5542 1.83316 -19.6481
ltibia 46.6476
lfoot -11.5265 5.70165
ltoes -9.41318
70
root 1.06741 16.4648 0.592494 -8.65551 -3.24953 0.752016
lowerback 12.2694 1.93533 3.18313
upperback 0.662899 3.17373 2.5192
thorax -6.15827 1.50057 0.308591
lowerneck -19.118 -5.09623 -9.27645
upperneck 18.1636 -5.33657 4.48781
head 9.24859 -2.65504 2.33413
rclavicle -2.7482e-014 -2.3059e-014
rhumerus -36.2101 13.791 -89.2455
rradius 116.07
rwrist -12.3685
rhand -12.423 20.1846
rfingers 7.12502
rthumb 13.6493 -9.3479
lclavicle -2.7482e-014 -2.3059e-014
lhumerus -54.1139 -4.7846 94.854
lradius 86.0015
lwrist 23.6413
lhand -17.6158 6.09953
lfingers 7.12502
lthumb 8.64116 35.9027
rfemur -8.52623 8.50772 24.4536
rtibia 53.6543
rfoot -22.5453 -15.1134
rtoes -11.2032
lfemur -32.0576 1.22202 -19.1621
ltibia 41.9311
lfoot -10.5342 5.27792
ltoes -9.35014
71
root 1.09649 16.5101 0.944824 -8.44305 -3.61105 0.455644
lowerback 11.7802 2.10127 3.61976
upperback 0.626626 3.4299 2.53829
thorax -5.89512 1.61905 0.0601089
lowerneck -19.2073 -5.08121 -9.26707
upperneck 18.2566 -5.3832 4.799
head 9.30855 -2.64121 2.43352
rclavicle -1.29707e-014 -1.51076e-014
rhumerus -35.9939 14.0637 -89.2926
rradius 116.53
rwrist -11.6953
rhand -12.4501 21.105
rfingers 7.12502
rthumb 13.6232 -8.42923
lclavicle -1.29707e-014 -1.51076e-014
lhumerus -55.3969 -4.15533 94.4324
lradius 86.4202
lwrist 23.9
lhand -17.2341 6.33454
lfingers 7.12502
lthumb 9.00941 36.1221
rfemur -7.01363 9.09396 24.9507
rtibia 53.172
rfoot -22.4175 -15.2281
rtoes -14.3671
lfemur -31.3736 0.0424078 -18.476
ltibia 37.2491
lfoot -9.74831 5.65041
ltoes -8.81154
72
root 1.11834 16.5441 1.27676 -8.40659 -3.2533 0.50565
lowerback 11.815 2.04034 3.58183
upperback 0.432173 3.34969 2.4469
thorax -6.11882 1.57409 -0.00663833
lowerneck -19.1047 -5.0379 -9.13028
upperneck 18.3249 -5.39972 4.90144
head 9.31364 -2.63011 2.44669
rclavicle -3.47873e-015 -7.95139e-016
rhumerus -35.9395 14.3544 -89.3129
rradius 116.945
rwrist -10.9311
rhand -12.3107 21.3094
rfingers 7.12502
rthumb 13.7576 -8.21576
lclavicle -3.47873e-015 -7.95139e-016
lhumerus -57.1442 -3.40882 93.9639
lradius 87.1507
lwrist 24.1476
lhand -15.907 6.02275
lfingers 7.12502
lthumb 10.2898 35.751
rfemur -5.53821 9.02681 24.9651
rtibia 52.8854
rfoot -22.0644 -14.8055
rtoes -15.1693
lfemur -30.6041 -1.7459 -18.2139
ltibia 32.8171
lfoot -9.21181 6.44177
ltoes -7.35913
73
root 1.14065 16.5859 1.62879 -8.29276 -3.24935 0.927245
lowerback 11.4153 2.11736 3.06515
upperback 0.3145 3.36136 2.32802
thorax -6.04042 1.59441 0.169107
lowerneck -19.142 -5.03484 -9.08583
upperneck 18.5745 -5.42747 4.96044
head 9.40975 -2.63483 2.45667
rclavicle -4.64659e-014 7.95139e-015
rhumerus -35.6711 14.7115 -89.1756
rradius 117.121
rwrist -10.1494
rhand -11.9074 21.5185
rfingers 7.12502
rthumb 14.1462 -7.97987
lclavicle -4.64659e-014 7.95139e-015
lhumerus -58.7607 -2.51745 93.4948
lradius 87.8168
lwrist 24.2669
lhand -13.6396 5.65953
lfingers 7.12502
lthumb 12.4766 35.2671
rfemur -4.30698 9.27678 24.5762
rtibia 52.8452
rfoot -21.5268 -14.2837
rtoes -15.3314
lfemur -29.8289 -3.64996 -18.1128
ltibia 28.9257
lfoot -9.09599 7.85441
ltoes -6.30567
74
root 1.15533 16.6156 1.98755 -8.23907 -3.4767 1.02357
lowerback 10.7083 2.17939 2.68054
upperback 0.447 3.3623 2.40518
thorax -5.53021 1.61577 0.49576
lowerneck -19.2503 -4.96999 -8.93499
upperneck 18.5603 -5.35588 4.89485
head 9.41198 -2.59627 2.41811
rclavicle 4.64659e-014 1.51076e-014
rhumerus -35.2037 15.2035 -88.9568
rradius 117.117
rwrist -9.56587
rhand -11.8 22.6903
rfingers 7.12502
rthumb 14.2497 -6.80079
lclavicle 4.64659e-014 1.51076e-014
lhumerus -59.8969 -1.38991 93.0268
lradius 88.3248
lwrist 24.4023
lhand -12.4761 5.7466
lfingers 7.12502
lthumb 13.5981 35.2825
rfemur -3.14033 9.71749 24.6631
rtibia 53.0771
rfoot -20.8948 -13.9309
rtoes -15.7996
lfemur -29.1391 -5.45504 -17.5042
ltibia 25.7692
lfoot -9.3386 9.64997
ltoes -6.17057
75
root 1.17686 16.6231 2.33744 -8.04937 -3.62301 0.622069
lowerback 10.0228 2.14932 2.78112
upperback 0.436146 3.31825 2.66508
thorax -5.1679 1.60043 0.744386
lowerneck -19.0624 -4.85187 -8.94582
upperneck 18.4531 -5.21847 4.96024
head 9.33248 -2.52796 2.46489
rclavicle -7.45443e-016 1.35174e-014
rhumerus -34.5422 15.9661 -88.5213
rradius 117.124
rwrist -9.08862
rhand -11.5325 22.5632
rfingers 7.12502
rthumb 14.5074 -6.9096
lclavicle -7.45443e-016 1.35174e-014
lhumerus -61.1736 -0.235321 92.693
lradius 88.7983
lwrist 24.5975
lhand -12.0463 5.77867
lfingers 7.12502
lthumb 14.0124 35.2864
rfemur -2.32343 9.89452 25.1827
rtibia 53.5737
rfoot -19.9489 -13.5344
rtoes -16.7831
lfemur -28.8908 -6.67163 -16.5881
ltibia 23.4452
lfoot -9.45134 11.0838
ltoes -6.77177
76
root 1.20151 16.6237 2.67901 -7.85828 -3.72718 0.345765
lowerback 9.63507 2.11709 2.79374
upperback 0.274508 3.27545 2.84397
thorax -5.13046 1.58163 0.941828
lowerneck -19.1798 -4.74274 -9.04256
upperneck 18.8051 -5.09453 5.19711
head 9.47625 -2.45192 2.58216
rclavicle 5.71009e-014 3.97569e-015
rhumerus -32.9866 17.1652 -87.8129
rradius 116.679
rwrist -9.22258
rhand -11.5397 22.0138
rfingers 7.12502
rthumb 14.5006 -7.45952
lclavicle 5.71009e-014 3.97569e-015
lhumerus -62.5359 0.752557 92.3582
lradius 89.2099
lwrist 24.7961
lhand -11.5577 5.01117
lfingers 7.12502
lthumb 14.4832 34.4857
rfemur -1.83039 9.93504 25.4219
rtibia 54.3517
rfoot -18.9409 -12.8449
rtoes -17.3605
lfemur -28.774 -6.7205 -16.2953
ltibia 21.8584
lfoot -9.42061 11.3708
ltoes -8.93372
77
root 1.22373 16.6276 3.01948 -7.89937 -3.80659 0.263466
lowerback 9.45923 2.08746 2.73539
upperback 0.227492 3.22398 2.8529
thorax -5.08473 1.55843 0.996564
lowerneck -19.3617 -4.70902 -8.8655
upperneck 18.9546 -5.10749 5.27668
head 9.55915 -2.43434 2.57822
rclavicle 2.01766e-014 1.43125e-014
rhumerus -32.4869 17.3261 -87.5708
rradius 116.586
rwrist -8.98004
rhand -11.2446 22.4349
rfingers 7.12502
rthumb 14.7848 -7.01769
lclavicle 2.01766e-014 1.43125e-014
lhumerus -63.6651 1.51137 91.8732
lradius 89.5575
lwrist 24.8986
lhand -12.4795 4.271
lfingers 7.12502
lthumb 13.5949 33.8071
rfemur -1.37453 9.93193 25.4295
rtibia 55.396
rfoot -17.7593 -11.8222
rtoes -17.161
lfemur -28.3559 -6.38908 -16.4788
ltibia 20.8424
lfoot -9.44832 10.858
ltoes -9.95953
